# xmcd
#
# Track frame offsets:
#	150
#	14393
#	31262
#	52178
#	70720
#	86461
#	106936
#	125051
#	143907
#	160161
#	176077
#
# Disc length: 2526 seconds
#
# Revision: 1
# Processed by: cddbd v1.5.2PL0 Copyright (c) Steve Scherf et al.
# Submitted via: audiograbber 1.83.01
#
DISCID=9209dc0b
DTITLE=Leena Ihmemaassa - Leena Ihmemaassa
DYEAR=2010
DGENRE=Pop
TTITLE0=Kaninkolo
TTITLE1=Onnun
TTITLE2=Piru
TTITLE3=Viimeinen Kerta
TTITLE4=Salarakkaan Päiväkirja
TTITLE5=Routa
TTITLE6=Seinäruusu
TTITLE7=Huimaat Mua
TTITLE8=Surunkorento
TTITLE9=Valomies
TTITLE10=Oodi Epätoivolle
EXTD=TR.
EXTT0=
EXTT1=
EXTT2=
EXTT3=
EXTT4=
EXTT5=
EXTT6=
EXTT7=
EXTT8=
EXTT9=
EXTT10=
PLAYORDER=
